<svg id="Camada_1" data-name="Camada 1" xmlns="http://www.w3.org/2000/svg" viewBox="0 0 144 157.5"><path d="M87.24,139.22a12.26,12.26,0,0,0-12.51,12,12.25,12.25,0,0,0,24.5.57A12.37,12.37,0,0,0,87.24,139.22Z" transform="translate(-12.66 -6.26)"/><path d="M155.7,11c-.8-.53-2.38-.48-2.24-1.72.4-3.36-1.12-1.76-2.3-1A13.11,13.11,0,0,0,149,10a36.75,36.75,0,0,1-17.18,9.75c-1.58.42-3.37.65-4.32,2.32l-.7.22c-1.83,2.23-4.61,2.69-7,3.82-1.32-.74-2.75-.27-4.13-.37-.33-.58-1.26-1-.35-1.88,2.7-2.54,2.29-6,2.49-9.17a7.29,7.29,0,0,0-5.09-7.46c-1.18-.41-2.43-.64-3.65-1-1.23.25-2.61.07-3.64.92-3.77,3.14-5.44,7.47-6.62,12-.46,1.78.62,3.4-1.63,5.4-3.39,3-7.56,4.64-10.92,7.57-1.34,1.16-2.92,2.14-4.22,3.47C78.44,39.3,76.35,44,73,47.83c-1,1.14-2.88,1.94-2.05,4.08.07.19-.48.65-.79.94-4.71,4.48-7.42,10.19-10,16a59.83,59.83,0,0,1-8.58,14.29c-1.34,1.64-2.64,3.31-4,5-.28.36-.87.7-.42,1.26.32.4.76.15,1.17,0s.85-.59,1.4-.33c0,2.64.07,2.91,1.47,2.66,1.68-.3,3.78-.15,4.26-2.68A17,17,0,0,1,57,85.57c.32-.75.87-1.41,1.69-1.33s.69,1,.79,1.63a1.62,1.62,0,0,0,1.29,1.52c.06-2.85,3-5,1.35-8-.13-.25.28-.76.35-1.17.49-2.66,2.21-4.54,4-6.32,2.76-2.67,5.28-5.47,6.41-9.29a7.57,7.57,0,0,1,2.61-3.33c1.88-1.61,4.61-2.15,5.74-4.74.47-1.06,1.07-.46,1.6.3,1.14,1.6.22,3.12-.1,4.59-.66,3.08.23,6.67-2.82,9-.29.22-.33.77-.47,1.16-.92,2.41-1.76,4.84-2.6,7.27A42,42,0,0,1,66.48,93.3c-3.64,3.57-5.79,8.36-9.88,11.5a.81.81,0,0,0-.32.62c.43,1.71-1.13,2.52-1.71,3.76-.45,1-1,1.31-2.09.27a9.07,9.07,0,0,0-8.61-2.65c-1.4.31-2.85.36-4.26.63-1.59.31-2.79.31-3.8-1.43A4.09,4.09,0,0,0,30,105c-3.22,2.93-7.2,4.4-11,6.3A10.44,10.44,0,0,0,13,119c-.25,1.4-.7,3,.58,4.07s3.06.57,4.59,0a5,5,0,0,0,1.3-.79c3.4-2.78,7.59-4.07,11.39-6.08A4.19,4.19,0,0,1,34.5,116c5.42,2.16,10.77,4.48,16.52,5.76a14.58,14.58,0,0,0,8.37-.61c5.2-1.8,7.94-7,13.18-8.89,1.31-.47,2.54-1.77,4.27-1.72a2.79,2.79,0,0,0,2.25-1A17.17,17.17,0,0,1,86,104.9c1.83-.74,3-3.6,5.31-2.38a15.75,15.75,0,0,1,4.81,4.1c.31.4.59.94,1,1.12,3.34,1.41,4.67,6.24,9.28,5.47.07,0,.15.07.22.11,2,1.14,4,2.25,5.94,3.41,1.13.66,1.43,1.45,1.09,2.92-.63,2.69-.95,5.47-1.44,8.21a33.45,33.45,0,0,0-.31,10.62c.56,4,1.49,8,1.06,12.13a68,68,0,0,1-1.3,7.18c-.74,3.51,1.2,5.78,4.78,5.44a1.49,1.49,0,0,1,1.39.38,12.39,12.39,0,0,0,1.48-.94c2.09-1.75,4.21-3.41,7-3.93,4.8-.89,8.06-3.8,10.33-8,.63-1.15,1.05-2.38.12-3.57a3.38,3.38,0,0,0-3.45-1.07c-2.05.29-3.84,1.3-5.76,2a5,5,0,0,1-5.06-.62c-1.29-1.12-.5-2.72-.15-4.07,1.23-4.74,2.67-9.38,3.12-14.35s0-10.32,1.55-15.34c.5-1.67-.37-3.15-1.43-4.43-.55-.65-1.23-1.27-.91-2.22.67-2-.54-3.33-1.66-4.73-3-3.69-5.86-7.43-8.79-11.14-1.06-1.35-1.73-2.69-.32-4.28a2,2,0,0,0,.23-2.18c-1.06-2.4.69-5-.61-7.43-.16-.31.17-1,.42-1.42,1.22-2,1.4-4.32,1.54-6.61a54.81,54.81,0,0,1,1.24-7.73c1.26-6.2,2.5-12.44,2.43-18.82,0-1-.16-2.09.69-2.86C122.9,37,125,33.12,129,31.23h0c.7.05,11.91-7.06,11.07-6.49a10.24,10.24,0,0,0,1.8-1.36,16.3,16.3,0,0,1,7.69-4.9c2-.65,4.34-1.68,4.74-4.43.1-.72.68-1.09,1.39-1.32C157.29,12.21,156.67,11.6,155.7,11Z" transform="translate(-12.66 -6.26)"/></svg>